<svg width="361" height="59" viewBox="0 0 361 59" fill="none" xmlns="http://www.w3.org/2000/svg">
<g clip-path="url(#clip0_146_1799)">
<rect width="361" height="59" rx="12" fill="#FEE500"/>
<g clip-path="url(#clip1_146_1799)">
<path fill-rule="evenodd" clip-rule="evenodd" d="M80.3198 19.6704C74.503 19.6704 69.7881 23.3132 69.7881 27.8059C69.7881 30.6 71.6117 33.0632 74.3887 34.5282L73.2203 38.7965C73.117 39.1737 73.5484 39.4743 73.8796 39.2557L79.0014 35.8754C79.4336 35.9171 79.8728 35.9415 80.3198 35.9415C86.1361 35.9415 90.8513 32.2989 90.8513 27.8059C90.8513 23.3132 86.1361 19.6704 80.3198 19.6704Z" fill="black"/>
</g>
<path d="M108.871 22.058C108.853 27.548 106.351 31.22 101.761 33.632L100.573 32.3C102.895 31.238 104.839 29.528 105.937 27.314L101.239 27.818L100.951 26.216L106.549 25.802C106.747 25.082 106.891 24.344 106.945 23.552H101.761V22.058H108.871ZM113.209 20.384V26.648H115.693V28.178H113.209V36.422H111.355V20.384H113.209ZM124.445 22.058C124.427 27.548 121.925 31.22 117.335 33.632L116.147 32.3C118.469 31.238 120.413 29.528 121.511 27.314L116.813 27.818L116.525 26.216L122.123 25.802C122.321 25.082 122.465 24.344 122.519 23.552H117.335V22.058H124.445ZM128.783 20.384V26.648H131.267V28.178H128.783V36.422H126.929V20.384H128.783ZM146.391 34.37H131.901V32.894H138.201V30.158C135.231 29.87 133.341 28.178 133.341 25.784C133.341 23.138 135.663 21.374 139.137 21.374C142.665 21.374 144.969 23.138 144.969 25.784C144.969 28.196 143.043 29.888 140.037 30.176V32.894H146.391V34.37ZM143.115 25.802C143.115 24.092 141.549 22.886 139.137 22.886C136.779 22.886 135.195 24.092 135.195 25.802C135.195 27.494 136.779 28.646 139.137 28.646C141.531 28.646 143.115 27.494 143.115 25.802ZM160.562 30.23H155.612V32.912H161.966V34.388H147.476V32.912H153.776V30.23H149.33V25.046H158.258V22.976H149.276V21.5H160.094V26.54H151.184V28.736H160.562V30.23ZM171.504 34.424C170.046 34.424 168.768 34.028 168.084 33.56L168.426 32.174C169.074 32.588 170.28 32.912 171.198 32.912C173.016 32.912 174.006 32.138 174.006 30.716C174.006 29.294 172.962 28.664 171.288 28.646L170.1 28.628V27.206L171.162 27.188C172.656 27.17 173.61 26.45 173.61 25.226C173.61 23.876 172.746 23.39 171.342 23.39C170.406 23.39 169.488 23.768 168.75 24.128L168.516 22.706C169.272 22.238 170.658 21.86 171.81 21.86C174.042 21.86 175.518 22.958 175.518 24.902C175.518 26.378 174.636 27.296 173.268 27.764C174.816 28.07 175.95 28.934 175.95 30.788C175.95 32.984 174.24 34.424 171.504 34.424ZM191.361 28.898L190.605 30.428C188.157 30.032 185.493 28.466 184.665 26.81C183.837 28.502 181.281 29.96 178.725 30.392L177.951 28.934C180.453 28.7 183.261 27.152 183.711 25.208H178.779V23.714H190.569V25.208H185.673C186.123 27.134 189.039 28.736 191.361 28.898ZM191.919 34.406H177.429V32.912H183.729V29.6H185.565V32.912H191.919V34.406ZM182.019 22.436V20.96H187.311V22.436H182.019ZM205.459 20.384V25.028H207.817V26.576H205.459V32.012H203.605V20.384H205.459ZM205.927 35.936H195.199V30.842H197.053V34.442H205.927V35.936ZM200.959 29.15H193.507V21.662H200.959V29.15ZM199.105 27.692V23.12H195.361V27.692H199.105ZM218.981 35.666H217.235V28.124H215.633C215.471 30.806 214.391 32.948 212.213 32.948C209.819 32.948 208.757 30.356 208.757 27.314C208.757 24.29 209.819 21.716 212.213 21.716C214.409 21.716 215.489 23.876 215.633 26.594H217.235V20.69H218.981V35.666ZM222.095 36.422H220.331V20.384H222.095V36.422ZM213.923 27.332C213.923 25.01 213.383 23.3 212.231 23.3C211.097 23.3 210.539 25.01 210.539 27.332C210.539 29.654 211.097 31.328 212.231 31.328C213.383 31.328 213.923 29.654 213.923 27.332ZM242.092 36.422H240.256V20.384H242.092V36.422ZM238.654 31.328L237.556 32.714C236.188 31.832 234.478 29.852 233.884 28.088C233.344 29.996 231.742 32.012 229.978 33.074L228.844 31.724C231.328 30.104 232.912 27.458 232.912 24.398V21.77H234.82V24.29C234.82 27.368 236.314 29.852 238.654 31.328ZM244.652 22.94V21.41H253.094V22.94H249.89V22.976C249.89 25.334 251.672 27.08 253.526 27.692L252.518 29.168C251.168 28.628 249.638 27.368 248.936 25.856C248.468 27.44 246.758 28.988 245.138 29.6L244.058 28.178C246.308 27.332 248 25.424 248 23.03V22.94H244.652ZM246.452 30.626H256.928V36.44H255.074V32.084H246.452V30.626ZM259.268 25.802H256.91V29.78H255.056V20.384H256.91V24.272H259.268V25.802ZM268.416 29.816C268.416 31.742 266.886 33.236 264.6 33.236C262.296 33.236 260.748 31.796 260.748 29.816C260.748 27.908 262.296 26.396 264.6 26.396C266.886 26.396 268.416 27.854 268.416 29.816ZM266.598 29.816C266.598 28.682 265.752 27.908 264.6 27.908C263.43 27.908 262.602 28.682 262.602 29.816C262.602 30.932 263.43 31.724 264.6 31.724C265.842 31.724 266.598 30.932 266.598 29.816ZM269.226 25.622H259.902V24.128H269.226V25.622ZM262.17 22.832V21.32H267.03V22.832H262.17ZM272.484 20.384V26.972H274.968V28.52H272.484V36.422H270.63V20.384H272.484ZM288.815 36.422H286.979V20.384H288.815V36.422ZM283.901 22.076C283.793 27.044 281.309 30.878 276.683 33.416L275.531 32.012C279.221 30.32 281.615 26.954 281.921 23.588H276.467V22.076H283.901Z" fill="black" fill-opacity="0.85"/>
</g>
<defs>
<clipPath id="clip0_146_1799">
<rect width="361" height="59" rx="12" fill="white"/>
</clipPath>
<clipPath id="clip1_146_1799">
<rect width="21.0632" height="21.0633" fill="white" transform="translate(69.7881 18.9683)"/>
</clipPath>
</defs>
</svg>
